<mxfile host="65bd71144e">
    <diagram id="H_ETs-fmGW9wV35iixv7" name="Page-1">
        <mxGraphModel dx="1924" dy="2291" grid="0" gridSize="10" guides="1" tooltips="1" connect="1" arrows="1" fold="1" page="1" pageScale="1" pageWidth="1654" pageHeight="1169" math="0" shadow="0">
            <root>
                <mxCell id="0"/>
                <mxCell id="1" parent="0"/>
                <mxCell id="75" value="Component tree" style="swimlane;startSize=20;horizontal=1;childLayout=treeLayout;horizontalTree=0;resizable=0;containerType=tree;fontSize=12;rounded=1;fontFamily=Helvetica;fontColor=default;fontStyle=0" parent="1" vertex="1">
                    <mxGeometry x="1158" y="-892" width="420" height="261" as="geometry"/>
                </mxCell>
                <mxCell id="76" value="Root" style="whiteSpace=wrap;html=1;rounded=1;fontFamily=Helvetica;fontSize=11;fontColor=default;" parent="75" vertex="1">
                    <mxGeometry x="115" y="40" width="190" height="111" as="geometry"/>
                </mxCell>
                <mxCell id="77" value="Child 1" style="whiteSpace=wrap;html=1;rounded=1;fontFamily=Helvetica;fontSize=11;fontColor=default;" parent="75" vertex="1">
                    <mxGeometry x="20" y="201" width="100" height="40" as="geometry"/>
                </mxCell>
                <mxCell id="78" value="" style="edgeStyle=elbowEdgeStyle;elbow=vertical;html=1;rounded=1;curved=0;sourcePerimeterSpacing=0;targetPerimeterSpacing=0;startSize=6;endSize=6;labelBackgroundColor=default;strokeColor=default;fontFamily=Helvetica;fontSize=11;fontColor=default;startArrow=oval;startFill=1;endArrow=classic;endFill=1;shape=connector;fontStyle=1" parent="75" edge="1">
                    <mxGeometry relative="1" as="geometry">
                        <mxPoint x="210" y="156" as="sourcePoint"/>
                        <mxPoint x="70" y="206" as="targetPoint"/>
                    </mxGeometry>
                </mxCell>
                <mxCell id="79" value="Child 2" style="whiteSpace=wrap;html=1;rounded=1;fontFamily=Helvetica;fontSize=11;fontColor=default;" parent="75" vertex="1">
                    <mxGeometry x="160" y="201" width="100" height="40" as="geometry"/>
                </mxCell>
                <mxCell id="80" value="" style="edgeStyle=elbowEdgeStyle;elbow=vertical;html=1;rounded=1;curved=0;sourcePerimeterSpacing=0;targetPerimeterSpacing=0;startSize=6;endSize=6;labelBackgroundColor=default;strokeColor=default;fontFamily=Helvetica;fontSize=11;fontColor=default;startArrow=oval;startFill=1;endArrow=classic;endFill=1;shape=connector;fontStyle=1" parent="75" edge="1">
                    <mxGeometry relative="1" as="geometry">
                        <mxPoint x="210" y="156" as="sourcePoint"/>
                        <mxPoint x="210" y="206" as="targetPoint"/>
                    </mxGeometry>
                </mxCell>
                <mxCell id="81" value="" style="edgeStyle=elbowEdgeStyle;elbow=vertical;html=1;rounded=1;curved=0;sourcePerimeterSpacing=0;targetPerimeterSpacing=0;startSize=6;endSize=6;labelBackgroundColor=default;strokeColor=default;fontFamily=Helvetica;fontSize=11;fontColor=default;startArrow=oval;startFill=1;endArrow=classic;endFill=1;shape=connector;fontStyle=1" parent="75" edge="1">
                    <mxGeometry relative="1" as="geometry">
                        <mxPoint x="210" y="156" as="sourcePoint"/>
                        <mxPoint x="350" y="206" as="targetPoint"/>
                    </mxGeometry>
                </mxCell>
                <mxCell id="82" value="Child 1" style="whiteSpace=wrap;html=1;rounded=1;fontFamily=Helvetica;fontSize=11;fontColor=default;" parent="75" vertex="1">
                    <mxGeometry x="300" y="201" width="100" height="40" as="geometry"/>
                </mxCell>
                <mxCell id="85" value="" style="rounded=0;whiteSpace=wrap;html=1;" parent="1" vertex="1">
                    <mxGeometry x="76" y="-1004" width="695" height="829" as="geometry"/>
                </mxCell>
                <mxCell id="86" value="&lt;font style=&quot;font-size: 22px;&quot;&gt;&lt;b&gt;Home page&lt;/b&gt;&lt;/font&gt;" style="text;strokeColor=none;align=center;fillColor=none;html=1;verticalAlign=middle;whiteSpace=wrap;rounded=0;" vertex="1" parent="1">
                    <mxGeometry x="605" y="-1097" width="492" height="30" as="geometry"/>
                </mxCell>
            </root>
        </mxGraphModel>
    </diagram>
</mxfile>